<svg width="42" height="42" viewBox="0 0 42 42" fill="none" xmlns="http://www.w3.org/2000/svg">
<g clip-path="url(#clip0_2561_2441)">
<rect width="42" height="42" rx="21" fill="#F3F4F6"/>
<path d="M42 36.7395V42.0017H0V36.7587C2.44291 33.494 5.61384 30.8443 9.26063 29.0203C12.9074 27.1963 16.9295 26.2483 21.007 26.2517C29.589 26.2517 37.212 30.3712 42 36.7395ZM28.0035 15.75C28.0035 17.6065 27.266 19.387 25.9532 20.6997C24.6405 22.0125 22.86 22.75 21.0035 22.75C19.147 22.75 17.3665 22.0125 16.0538 20.6997C14.741 19.387 14.0035 17.6065 14.0035 15.75C14.0035 13.8935 14.741 12.113 16.0538 10.8003C17.3665 9.4875 19.147 8.75 21.0035 8.75C22.86 8.75 24.6405 9.4875 25.9532 10.8003C27.266 12.113 28.0035 13.8935 28.0035 15.75Z" fill="#D1D5DB"/>
</g>
<defs>
<clipPath id="clip0_2561_2441">
<rect width="42" height="42" rx="21" fill="white"/>
</clipPath>
</defs>
</svg>
