<svg width="23" height="22" viewBox="0 0 23 22" fill="none" xmlns="http://www.w3.org/2000/svg">
<path d="M5.54134 19.2505C6.30217 19.2505 6.91634 18.6363 6.91634 17.8755V16.5005H16.083V17.8755C16.083 18.6363 16.6972 19.2505 17.458 19.2505C18.2188 19.2505 18.833 18.6363 18.833 17.8755V15.5838C18.833 14.5755 18.008 13.7505 16.9997 13.7505H5.99967C4.99134 13.7505 4.16634 14.5755 4.16634 15.5838V17.8755C4.16634 18.6363 4.78051 19.2505 5.54134 19.2505ZM18.833 9.16716H19.7497C20.2538 9.16716 20.6663 9.57966 20.6663 10.0838V11.0005C20.6663 11.5047 20.2538 11.9172 19.7497 11.9172H18.833C18.3288 11.9172 17.9163 11.5047 17.9163 11.0005V10.0838C17.9163 9.57966 18.3288 9.16716 18.833 9.16716ZM3.24967 9.16716H4.16634C4.67051 9.16716 5.08301 9.57966 5.08301 10.0838V11.0005C5.08301 11.5047 4.67051 11.9172 4.16634 11.9172H3.24967C2.74551 11.9172 2.33301 11.5047 2.33301 11.0005V10.0838C2.33301 9.57966 2.74551 9.16716 3.24967 9.16716ZM16.083 11.9172H6.91634V4.58382C6.91634 3.57549 7.74134 2.75049 8.74967 2.75049H14.2497C15.258 2.75049 16.083 3.57549 16.083 4.58382V11.9172Z" fill="#FF7200"/>
</svg>
