<svg width="41" height="40" viewBox="0 0 41 40" fill="none" xmlns="http://www.w3.org/2000/svg">
<rect width="40" height="40" transform="translate(0.5)" fill="white"/>
<path d="M20.4997 3.33301C11.2997 3.33301 3.83301 10.7997 3.83301 19.9997C3.83301 29.1997 11.2997 36.6663 20.4997 36.6663C29.6997 36.6663 37.1663 29.1997 37.1663 19.9997C37.1663 10.7997 29.6997 3.33301 20.4997 3.33301ZM20.4997 21.6663C19.583 21.6663 18.833 20.9163 18.833 19.9997V13.333C18.833 12.4163 19.583 11.6663 20.4997 11.6663C21.4163 11.6663 22.1663 12.4163 22.1663 13.333V19.9997C22.1663 20.9163 21.4163 21.6663 20.4997 21.6663ZM22.1663 28.333H18.833V24.9997H22.1663V28.333Z" fill="#C5280C"/>
</svg>
