<svg width="16" height="16" viewBox="0 0 16 16" fill="none" xmlns="http://www.w3.org/2000/svg">
<path d="M12 1.33992L3.99996 1.33325C3.26663 1.33325 2.66663 1.92659 2.66663 2.66659V13.3333C2.66663 14.0666 3.26663 14.6666 3.99996 14.6666H12C12.7333 14.6666 13.3333 14.0666 13.3333 13.3333V2.66659C13.3333 1.92659 12.7333 1.33992 12 1.33992ZM11.3333 13.3333H4.66663C4.29996 13.3333 3.99996 13.0333 3.99996 12.6666V7.98659C3.99996 7.61992 4.29996 7.31992 4.66663 7.31992H11.3333C11.7 7.31992 12 7.61992 12 7.98659V12.6666C12 13.0333 11.7 13.3333 11.3333 13.3333ZM11.3333 5.99992H4.66663C4.29996 5.99992 3.99996 5.69992 3.99996 5.33325V3.33325C3.99996 2.96659 4.29996 2.66659 4.66663 2.66659H11.3333C11.7 2.66659 12 2.96659 12 3.33325V5.33325C12 5.69992 11.7 5.99992 11.3333 5.99992ZM5.99996 3.33325C6.36663 3.33325 6.66663 3.63325 6.66663 3.99992V4.66659C6.66663 5.03325 6.36663 5.33325 5.99996 5.33325C5.63329 5.33325 5.33329 5.03325 5.33329 4.66659V3.99992C5.33329 3.63325 5.63329 3.33325 5.99996 3.33325ZM5.99996 7.99992C6.36663 7.99992 6.66663 8.29992 6.66663 8.66659V10.6666C6.66663 11.0333 6.36663 11.3333 5.99996 11.3333C5.63329 11.3333 5.33329 11.0333 5.33329 10.6666V8.66659C5.33329 8.29992 5.63329 7.99992 5.99996 7.99992Z" fill="white"/>
</svg>
