<svg width="20" height="20" viewBox="0 0 20 20" fill="none" xmlns="http://www.w3.org/2000/svg">
<path d="M14.9997 1.67533L4.99967 1.66699C4.08301 1.66699 3.33301 2.40866 3.33301 3.33366V16.667C3.33301 17.5837 4.08301 18.3337 4.99967 18.3337H14.9997C15.9163 18.3337 16.6663 17.5837 16.6663 16.667V3.33366C16.6663 2.40866 15.9163 1.67533 14.9997 1.67533ZM14.1663 16.667H5.83301C5.37467 16.667 4.99967 16.292 4.99967 15.8337V9.98366C4.99967 9.52533 5.37467 9.15033 5.83301 9.15033H14.1663C14.6247 9.15033 14.9997 9.52533 14.9997 9.98366V15.8337C14.9997 16.292 14.6247 16.667 14.1663 16.667ZM14.1663 7.50033H5.83301C5.37467 7.50033 4.99967 7.12533 4.99967 6.66699V4.16699C4.99967 3.70866 5.37467 3.33366 5.83301 3.33366H14.1663C14.6247 3.33366 14.9997 3.70866 14.9997 4.16699V6.66699C14.9997 7.12533 14.6247 7.50033 14.1663 7.50033ZM7.49967 4.16699C7.95801 4.16699 8.33301 4.54199 8.33301 5.00033V5.83366C8.33301 6.29199 7.95801 6.66699 7.49967 6.66699C7.04134 6.66699 6.66634 6.29199 6.66634 5.83366V5.00033C6.66634 4.54199 7.04134 4.16699 7.49967 4.16699ZM7.49967 10.0003C7.95801 10.0003 8.33301 10.3753 8.33301 10.8337V13.3337C8.33301 13.792 7.95801 14.167 7.49967 14.167C7.04134 14.167 6.66634 13.792 6.66634 13.3337V10.8337C6.66634 10.3753 7.04134 10.0003 7.49967 10.0003Z" fill="#616A75"/>
</svg>
