<svg width="22" height="22" viewBox="0 0 22 22" fill="none" xmlns="http://www.w3.org/2000/svg">
<path d="M15.5824 10.0838V4.58382C15.5824 3.57549 14.7574 2.75049 13.749 2.75049H8.24902C7.24069 2.75049 6.41569 3.57549 6.41569 4.58382V6.41716H4.58236C3.57402 6.41716 2.74902 7.24216 2.74902 8.25049V17.4172C2.74902 18.4255 3.57402 19.2505 4.58236 19.2505H9.16569C9.66986 19.2505 10.0824 18.838 10.0824 18.3338V15.5838H11.9157V18.3338C11.9157 18.838 12.3282 19.2505 12.8324 19.2505H17.4157C18.424 19.2505 19.249 18.4255 19.249 17.4172V11.9172C19.249 10.9088 18.424 10.0838 17.4157 10.0838H15.5824ZM6.41569 17.4172H4.58236V15.5838H6.41569V17.4172ZM6.41569 13.7505H4.58236V11.9172H6.41569V13.7505ZM6.41569 10.0838H4.58236V8.25049H6.41569V10.0838ZM10.0824 13.7505H8.24902V11.9172H10.0824V13.7505ZM10.0824 10.0838H8.24902V8.25049H10.0824V10.0838ZM10.0824 6.41716H8.24902V4.58382H10.0824V6.41716ZM13.749 13.7505H11.9157V11.9172H13.749V13.7505ZM13.749 10.0838H11.9157V8.25049H13.749V10.0838ZM13.749 6.41716H11.9157V4.58382H13.749V6.41716ZM17.4157 17.4172H15.5824V15.5838H17.4157V17.4172ZM17.4157 13.7505H15.5824V11.9172H17.4157V13.7505Z" fill="#001738"/>
</svg>
