<svg width="35" height="34" viewBox="0 0 35 34" fill="none" xmlns="http://www.w3.org/2000/svg">
<path d="M17.4997 0.333008C8.29967 0.333008 0.833008 7.79967 0.833008 16.9997C0.833008 26.1997 8.29967 33.6663 17.4997 33.6663C26.6997 33.6663 34.1663 26.1997 34.1663 16.9997C34.1663 7.79967 26.6997 0.333008 17.4997 0.333008ZM12.983 24.1497L6.99967 18.1663C6.34967 17.5163 6.34967 16.4663 6.99967 15.8163C7.64967 15.1663 8.69967 15.1663 9.34967 15.8163L14.1663 20.6163L25.633 9.14967C26.283 8.49967 27.333 8.49967 27.983 9.14967C28.633 9.79967 28.633 10.8497 27.983 11.4997L15.333 24.1497C14.6997 24.7997 13.633 24.7997 12.983 24.1497Z" fill="#1D7C4D"/>
</svg>
