<svg width="33" height="29" viewBox="0 0 33 29" fill="none" xmlns="http://www.w3.org/2000/svg">
<path d="M3.9489 28.9996H29.0489C31.6156 28.9996 33.2156 26.2163 31.9322 23.9996L19.3822 2.31631C18.0989 0.099642 14.8989 0.099642 13.6156 2.31631L1.06557 23.9996C-0.217767 26.2163 1.38223 28.9996 3.9489 28.9996V28.9996ZM16.4989 17.333C15.5822 17.333 14.8322 16.583 14.8322 15.6663V12.333C14.8322 11.4163 15.5822 10.6663 16.4989 10.6663C17.4156 10.6663 18.1656 11.4163 18.1656 12.333V15.6663C18.1656 16.583 17.4156 17.333 16.4989 17.333ZM18.1656 23.9996H14.8322V20.6663H18.1656V23.9996Z" fill="#D89B0D"/>
</svg>
